<svg width="22" height="16" viewBox="0 0 22 16" fill="none" xmlns="http://www.w3.org/2000/svg">
<path d="M11 14.7918C12.3723 14.7918 14.6451 14.7747 17.2525 13.2651C19.8598 11.7556 20.7089 9.8773 20.9748 8.90813C20.9993 8.82082 21.006 8.72949 20.9946 8.63954C20.9831 8.54959 20.9537 8.46286 20.9081 8.38448C20.8625 8.3061 20.8017 8.23766 20.7292 8.18323C20.6566 8.1288 20.5739 8.08948 20.4859 8.0676C19.8598 7.90464 18.762 7.75884 17.3554 8.09333" stroke="#D1D1D1" stroke-width="1.5" stroke-linecap="round" stroke-linejoin="round"/>
<path d="M4.64459 8.08473C3.23799 7.75881 2.14016 7.90462 1.51405 8.06758C1.42606 8.08946 1.34335 8.12878 1.27083 8.18321C1.19831 8.23764 1.13745 8.30608 1.09187 8.38446C1.04628 8.46284 1.01688 8.54957 1.00543 8.63952C0.993974 8.72947 1.00069 8.8208 1.02518 8.9081C1.29106 9.87728 2.14016 11.7642 4.74751 13.2651C7.35486 14.7661 9.62771 14.7918 11 14.7918" stroke="#D1D1D1" stroke-width="1.5" stroke-linecap="round" stroke-linejoin="round"/>
<path d="M11.0001 14.7918C11.0001 14.7918 14.4308 12.9221 14.4308 7.93036C14.4308 4.01934 12.3209 2.02952 11.4117 1.34337C11.2924 1.2556 11.1482 1.20825 11.0001 1.20825C10.8519 1.20825 10.7077 1.2556 10.5884 1.34337C9.67923 2.02952 7.56934 4.01934 7.56934 7.93036C7.56934 12.9221 11.0001 14.7918 11.0001 14.7918Z" stroke="#D1D1D1" stroke-width="1.5" stroke-linecap="round" stroke-linejoin="round"/>
<path d="M11 14.7918C12.0292 14.5688 14.7995 13.0078 16.4634 10.126C18.1273 7.24419 17.7156 4.95419 17.3897 3.9507C17.3399 3.78931 17.2308 3.65275 17.0845 3.56844C16.9381 3.48412 16.7653 3.45829 16.6007 3.49613C15.6159 3.71668 14.6947 4.15969 13.9075 4.79123" stroke="#D1D1D1" stroke-width="1.5" stroke-linecap="round" stroke-linejoin="round"/>
<path d="M8.09244 4.79123C7.30531 4.15969 6.38409 3.71668 5.39932 3.49613C5.2347 3.45829 5.06187 3.48412 4.91551 3.56844C4.76915 3.65275 4.6601 3.78931 4.61025 3.9507C4.28434 4.95419 3.87265 7.25277 5.53655 10.126C7.20045 12.9992 9.97076 14.5688 11 14.7918" stroke="#D1D1D1" stroke-width="1.5" stroke-linecap="round" stroke-linejoin="round"/>
</svg>
