<svg width="23" height="16" viewBox="0 0 23 16" fill="none" xmlns="http://www.w3.org/2000/svg">
<path d="M1.5 3.71429H9.35714" stroke="#D1D1D1" stroke-width="1.5" stroke-linecap="round" stroke-linejoin="round"/>
<path d="M13.6428 3.71429H21.5" stroke="#D1D1D1" stroke-width="1.5" stroke-linecap="round" stroke-linejoin="round"/>
<path d="M11.5 5.85713C12.6835 5.85713 13.6429 4.89774 13.6429 3.71427C13.6429 2.5308 12.6835 1.57141 11.5 1.57141C10.3166 1.57141 9.35718 2.5308 9.35718 3.71427C9.35718 4.89774 10.3166 5.85713 11.5 5.85713Z" stroke="#D1D1D1" stroke-width="1.5" stroke-linecap="round" stroke-linejoin="round"/>
<path d="M3.64286 14.4285C4.82632 14.4285 5.78571 13.4691 5.78571 12.2857C5.78571 11.1022 4.82632 10.1428 3.64286 10.1428C2.45939 10.1428 1.5 11.1022 1.5 12.2857C1.5 13.4691 2.45939 14.4285 3.64286 14.4285Z" stroke="#D1D1D1" stroke-width="1.5" stroke-linecap="round" stroke-linejoin="round"/>
<path d="M19.3571 14.4285C20.5406 14.4285 21.4999 13.4691 21.4999 12.2857C21.4999 11.1022 20.5406 10.1428 19.3571 10.1428C18.1736 10.1428 17.2142 11.1022 17.2142 12.2857C17.2142 13.4691 18.1736 14.4285 19.3571 14.4285Z" stroke="#D1D1D1" stroke-width="1.5" stroke-linecap="round" stroke-linejoin="round"/>
<path d="M13.625 4.00891C15.0391 4.4059 16.3138 5.19087 17.3047 6.27494C18.2957 7.35902 18.9634 8.69888 19.2321 10.1428" stroke="#D1D1D1" stroke-width="1.5" stroke-linecap="round" stroke-linejoin="round"/>
<path d="M3.76782 10.1428C4.03658 8.69888 4.70424 7.35902 5.69521 6.27494C6.68619 5.19087 7.96088 4.4059 9.37496 4.00891" stroke="#D1D1D1" stroke-width="1.5" stroke-linecap="round" stroke-linejoin="round"/>
</svg>
