<svg width="21" height="20" viewBox="0 0 21 20" fill="none" xmlns="http://www.w3.org/2000/svg">
<path d="M17.5 17.25C19.0188 15.7312 17.0041 11.2541 13 7.25C8.99594 3.24594 4.51878 1.23122 3 2.75C1.48122 4.26878 3.49594 8.74594 7.5 12.75C11.5041 16.7541 15.9812 18.7688 17.5 17.25Z" stroke="#D1D1D1" stroke-width="1.5" stroke-linecap="round" stroke-linejoin="round"/>
<path d="M13 12.75C17.0041 8.74594 19.0188 4.26878 17.5 2.75C15.9812 1.23122 11.5041 3.24594 7.5 7.25C3.49594 11.2541 1.48122 15.7312 3 17.25C4.51878 18.7688 8.99594 16.7541 13 12.75Z" stroke="#D1D1D1" stroke-width="1.5" stroke-linecap="round" stroke-linejoin="round"/>
<path d="M10.2483 11.0607C10.8341 11.0607 11.3089 10.5858 11.3089 9.99999C11.3089 9.4142 10.8341 8.93933 10.2483 8.93933C9.6625 8.93933 9.18762 9.4142 9.18762 9.99999C9.18762 10.5858 9.6625 11.0607 10.2483 11.0607Z" fill="#D1D1D1"/>
</svg>
