<svg width="14" height="15" viewBox="0 0 14 15" fill="none" xmlns="http://www.w3.org/2000/svg">
<path d="M5.80854 13.2959C5.80853 13.1959 5.78653 13.0972 5.7441 13.0066C5.70167 12.9161 5.63985 12.8361 5.56303 12.7721C5.4862 12.7081 5.39625 12.6618 5.29954 12.6365C5.20284 12.6112 5.10175 12.6075 5.00343 12.6256C4.11112 12.7893 2.98449 12.8139 2.68494 11.9725C2.42374 11.3209 1.99109 10.7521 1.43284 10.3264C1.39301 10.3047 1.35505 10.2798 1.31935 10.2518C1.27049 10.123 1.18371 10.0119 1.07046 9.93337C0.957203 9.85482 0.822798 9.81245 0.68497 9.81184H0.681644C0.501419 9.81178 0.328508 9.88311 0.200759 10.0102C0.073009 10.1374 0.000826251 10.3099 9.55717e-06 10.4901C-0.00265563 11.046 0.552815 11.4021 0.778163 11.5226C1.04389 11.7896 1.25746 12.1038 1.40788 12.4492C1.65617 13.1468 2.37774 14.2052 4.45193 14.0687C4.45262 14.0927 4.45326 14.1153 4.4536 14.136L4.45659 14.3184C4.45659 14.4991 4.5284 14.6725 4.65624 14.8004C4.78407 14.9282 4.95744 15 5.13822 15C5.31901 15 5.49238 14.9282 5.62021 14.8004C5.74804 14.6725 5.81986 14.4991 5.81986 14.3184L5.81653 14.1014C5.81321 13.9722 5.80854 13.7851 5.80854 13.2959ZM13.0795 2.98547C13.1012 2.90026 13.1225 2.80574 13.1411 2.69924C13.2514 1.93962 13.1552 1.16433 12.8629 0.454615C12.826 0.362092 12.7693 0.278758 12.6968 0.210455C12.6243 0.142153 12.5377 0.0905343 12.4432 0.059219C12.2005 -0.022659 11.3046 -0.18375 9.59116 0.911262C8.16691 0.576099 6.6843 0.576099 5.26005 0.911262C3.55363 -0.167711 2.66231 -0.0212957 2.42201 0.0559198C2.32512 0.0859666 2.23619 0.137312 2.16172 0.206192C2.08726 0.275072 2.02915 0.359741 1.99166 0.453994C1.69331 1.17733 1.59825 1.96843 1.71674 2.74186C1.73339 2.82906 1.75135 2.90961 1.77 2.98349C1.20531 3.73564 0.904532 4.65306 0.914293 5.59354C0.912452 5.80337 0.922119 6.01314 0.943248 6.22192C1.17091 9.35917 3.21582 10.3011 4.64064 10.6246C4.61103 10.7098 4.58407 10.801 4.5601 10.8975C4.51739 11.0729 4.54597 11.2581 4.63958 11.4124C4.73319 11.5667 4.88418 11.6777 5.05945 11.7208C5.23472 11.764 5.41995 11.7359 5.57454 11.6427C5.72913 11.5495 5.84045 11.3988 5.8841 11.2237C5.92747 10.9966 6.03864 10.7879 6.20295 10.6253C6.3023 10.5383 6.37424 10.4243 6.41 10.2972C6.44576 10.1701 6.44381 10.0353 6.40439 9.90928C6.36497 9.78325 6.28977 9.6714 6.18795 9.58732C6.08612 9.50325 5.96206 9.45058 5.83085 9.43572C3.47641 9.1668 2.45429 8.20759 2.30053 6.09678C2.28349 5.9296 2.27583 5.76159 2.27756 5.59355C2.26663 4.92326 2.48807 4.26986 2.90428 3.74435C2.9461 3.68956 2.99064 3.6369 3.03774 3.58658C3.12119 3.4932 3.1773 3.37863 3.19991 3.25545C3.22252 3.13227 3.21074 3.00524 3.16589 2.88831C3.1199 2.76529 3.08449 2.63858 3.06005 2.50954C3.00452 2.14263 3.02273 1.76833 3.11363 1.40854C3.70606 1.57586 4.26362 1.84822 4.75977 2.21265C4.84182 2.2673 4.93466 2.30367 5.032 2.31929C5.12934 2.33491 5.22889 2.32942 5.32392 2.30319C6.70158 1.92931 8.15401 1.92955 9.53155 2.30387C9.62709 2.33007 9.72718 2.33525 9.82491 2.31905C9.92265 2.30284 10.0157 2.26565 10.0977 2.21001C10.5915 1.84407 11.1467 1.56928 11.7372 1.39858C11.8277 1.74972 11.8479 2.11528 11.7968 2.47428C11.7721 2.61574 11.7335 2.75443 11.6816 2.88832C11.6368 3.00525 11.625 3.13228 11.6476 3.25546C11.6702 3.37864 11.7263 3.49321 11.8098 3.5866C11.8624 3.64584 11.9149 3.70974 11.9622 3.76965C12.3755 4.28627 12.5932 4.93216 12.577 5.59354C12.5782 5.7705 12.5696 5.94739 12.5513 6.1234C12.4012 8.20624 11.3751 9.16613 9.0097 9.43571C8.87845 9.45066 8.75438 9.50342 8.65256 9.58758C8.55075 9.67173 8.47558 9.78366 8.4362 9.90974C8.39681 10.0358 8.39491 10.1706 8.43072 10.2978C8.46654 10.4249 8.53852 10.5389 8.63793 10.6259C8.8074 10.7929 8.91882 11.0099 8.95578 11.245C9.00184 11.4275 9.023 11.6153 9.01869 11.8035V13.3944C9.01201 13.8357 9.01201 14.1666 9.01201 14.3183C9.01201 14.4991 9.08383 14.6725 9.21166 14.8003C9.33949 14.9281 9.51287 15 9.69365 15C9.87443 15 10.0478 14.9281 10.1756 14.8003C10.3035 14.6725 10.3753 14.4991 10.3753 14.3183C10.3753 14.1705 10.3753 13.8464 10.3819 13.405V11.8035C10.3874 11.5021 10.3519 11.2013 10.2764 10.9095C10.2548 10.8137 10.2284 10.719 10.1972 10.6259C11.2342 10.4537 12.1763 9.91903 12.856 9.1172C13.5357 8.31537 13.9088 7.29837 13.9089 6.24722C13.9314 6.03007 13.9418 5.81184 13.9402 5.59354C13.9554 4.65205 13.6521 3.73302 13.0795 2.98547Z" fill="white"/>
</svg>
