<svg width="39" height="25" viewBox="0 0 39 25" fill="none" xmlns="http://www.w3.org/2000/svg">
<path fill-rule="evenodd" clip-rule="evenodd" d="M0.219616 10.7339L0.663156 11.8346C1.20629 11.157 1.97643 10.4428 2.66895 9.95799L2.66811 9.95681C3.67564 9.22372 4.84286 8.59563 6.09351 8.06229C6.21308 7.94085 6.68845 5.07156 12.5542 3.38133C14.7989 2.73455 17.3442 2.48712 19.0572 2.46736V0C15.8945 0.0233064 10.94 0.63122 6.83204 2.29939C3.90799 3.48679 1.42743 5.20679 0.384035 7.62512L0.00476074 9.42887L0.219616 10.7339V10.7339Z" fill="#BFBFBF" fill-opacity="0.5"/>
<path fill-rule="evenodd" clip-rule="evenodd" d="M37.7905 11.0237C37.9232 10.6944 38.1321 9.97617 38.1414 9.61314C38.0691 8.85931 37.943 8.21593 37.7316 7.78485C36.6315 5.54246 33.1975 3.69749 30.9285 2.9006V6.83061C31.5307 7.39634 32.0327 8.02003 32.2618 8.84048C34.1752 9.62833 35.8301 10.5777 37.2435 12.0339C37.4679 11.701 37.6492 11.369 37.7905 11.0237Z" fill="#FAFAFA" fill-opacity="0.5"/>
<path fill-rule="evenodd" clip-rule="evenodd" d="M7.26249 10.8576C7.48432 11.211 7.76876 11.5424 8.09716 11.8491C10.4863 10.0556 14.3235 9.23266 17.2338 8.96413C17.2338 8.68454 17.1978 8.43941 17.5204 8.2967L18.9844 7.56145V3.35865L17.4025 3.43811C16.0475 3.54566 14.7095 3.78243 13.3854 4.08423C13.3122 4.10244 13.2391 4.12097 13.1661 4.14002V4.14006C13.0931 4.15906 13.0201 4.17848 12.9473 4.19833V4.19835C12.8744 4.21821 12.8017 4.23843 12.7291 4.25912V4.25917C11.5295 4.60112 10.7568 4.91464 9.66233 5.49844L8.78943 6.06185C8.29557 6.41775 7.77708 6.91365 7.40406 7.44411H7.40402C7.36737 7.49621 7.33183 7.5489 7.29733 7.60223H7.29728C7.11479 7.88436 6.97345 8.15598 6.89264 8.53008L6.75635 9.32737C6.79138 9.83205 6.94308 10.2987 7.18624 10.7287C7.21073 10.772 7.23615 10.815 7.26249 10.8576V10.8576Z" fill="#E6E6E6" fill-opacity="0.5"/>
<path fill-rule="evenodd" clip-rule="evenodd" d="M19.6677 8.21414L18.6775 8.71139L21.8757 10.3036L29.8452 6.30126C29.902 6.26558 29.9667 6.24243 30.0348 6.23551V3.00791L19.6677 8.21414V8.21414Z" fill="#BFBFBF" fill-opacity="0.5"/>
<path fill-rule="evenodd" clip-rule="evenodd" d="M31.224 10.523C31.4174 10.0633 31.4667 9.71123 31.4328 9.2179C31.3638 8.69603 30.8861 8.05237 30.5275 7.68552V11.5966C30.797 11.2968 31.0489 10.9214 31.224 10.523V10.523Z" fill="#FAFAFA" fill-opacity="0.5"/>
<path fill-rule="evenodd" clip-rule="evenodd" d="M29.6338 12.3942V7.40327L22.3218 11.0754V14.8994C24.585 14.5752 27.659 13.8442 29.6338 12.3942V12.3942Z" fill="#E6E6E6" fill-opacity="0.5"/>
<path fill-rule="evenodd" clip-rule="evenodd" d="M18.8291 15.1816C19.6917 15.1693 20.5631 15.1101 21.428 15.0133V11.0782L18.7784 9.75931C18.5708 9.76552 18.3533 9.77522 18.1276 9.78864V14.8323L18.8291 15.1816Z" fill="#FAFAFA" fill-opacity="0.5"/>
<path fill-rule="evenodd" clip-rule="evenodd" d="M21.9461 15.8513C20.477 16.0876 18.029 16.1331 16.6493 15.9883C13.9321 15.703 8.8103 14.4505 6.75 11.6894L6.75748 15.5793L6.91921 16.5093C11.7215 18.3193 18.6245 18.9947 24.0343 18.2279V18.2279C25.7018 17.9817 28.5467 17.3542 31.2486 16.2529L31.467 15.79L31.4472 11.8828C29.5339 14.3678 25.0797 15.4569 21.9461 15.8513V15.8513Z" fill="#FAFAFA" fill-opacity="0.5"/>
<path fill-rule="evenodd" clip-rule="evenodd" d="M31.7615 17.009C29.5775 17.9589 26.5308 18.7573 24.1635 19.1111V19.1111C18.9741 19.8644 11.6488 19.3068 6.38532 17.2593C3.53973 16.1531 1.20957 14.5883 0.00164491 12.4877V15.7126H0C0.0434853 18.5367 2.18388 20.6089 5.11757 22.0694C9.40568 24.2041 15.344 25.0259 19.1013 24.9994C23.8138 24.9662 35.0384 23.2351 37.7152 17.6655C37.9338 17.2108 38.0643 16.585 38.1387 15.8679L38.139 15.8411L38.1395 15.8411C38.2548 14.7141 38.2336 13.4119 38.1981 12.1947L37.6247 13.0206L37.625 13.0208C36.205 14.8112 33.9021 16.1169 31.7615 17.009V17.009Z" fill="#E6E6E6" fill-opacity="0.5"/>
</svg>
