<svg width="330" height="216" viewBox="0 0 330 216" fill="none" xmlns="http://www.w3.org/2000/svg">
<path fill-rule="evenodd" clip-rule="evenodd" d="M1.89588 92.6641L5.72488 102.166C10.4137 96.3163 17.0621 90.1509 23.0405 85.9655L23.0333 85.9553C31.7311 79.6267 41.8075 74.2045 52.6041 69.6003C53.6363 68.5519 57.7401 43.7818 108.378 29.1904C127.756 23.6068 149.729 21.4708 164.517 21.3002V0C137.215 0.2012 94.443 5.44921 58.9797 19.8502C33.7369 30.1008 12.3227 44.9492 3.31528 65.8263L0.0410767 81.3977L1.89588 92.6641Z" fill="#154B93"/>
<path fill-rule="evenodd" clip-rule="evenodd" d="M326.239 95.1658C327.385 92.323 329.188 86.1224 329.268 82.9884C328.644 76.4808 327.555 70.9266 325.73 67.2052C316.233 47.847 286.588 31.9198 267 25.0404V58.9674C272.199 63.8512 276.533 69.2354 278.511 76.3182C295.029 83.1196 309.315 91.3152 321.516 103.887C323.454 101.013 325.019 98.1468 326.239 95.1658Z" fill="#1C6AD0"/>
<path fill-rule="evenodd" clip-rule="evenodd" d="M62.6955 93.7316C64.6105 96.7824 67.0661 99.6436 69.9011 102.291C90.5263 86.8078 123.652 79.7038 148.776 77.3856C148.776 74.972 148.466 72.8558 151.25 71.6238L163.889 65.2766V28.9945L150.233 29.6805C138.535 30.6089 126.985 32.6529 115.553 35.2583C114.921 35.4155 114.29 35.5755 113.66 35.7399V35.7403C113.03 35.9043 112.4 36.0719 111.771 36.2433V36.2435C111.142 36.4149 110.515 36.5895 109.888 36.7681V36.7685C99.5317 39.7205 92.8615 42.4271 83.4129 47.4669L75.8773 52.3308C71.6139 55.4032 67.1379 59.6842 63.9177 64.2636H63.9173C63.6009 64.7134 63.2941 65.1682 62.9963 65.6286H62.9959C61.4205 68.0642 60.2003 70.409 59.5027 73.6386L58.326 80.5214C58.6285 84.8782 59.9381 88.9066 62.0373 92.6184C62.2487 92.9924 62.4681 93.3636 62.6955 93.7316Z" fill="#4A8FE7"/>
<path fill-rule="evenodd" clip-rule="evenodd" d="M169.788 70.9111L161.24 75.2037L188.849 88.9487L257.648 54.3975C258.139 54.0895 258.697 53.8897 259.285 53.8299V25.9667L169.788 70.9111Z" fill="#154B93"/>
<path fill-rule="evenodd" clip-rule="evenodd" d="M269.551 90.8429C271.221 86.8747 271.646 83.8353 271.354 79.5765C270.758 75.0713 266.634 69.5147 263.538 66.3477V100.111C265.865 97.5229 268.04 94.2823 269.551 90.8429Z" fill="#1C6AD0"/>
<path fill-rule="evenodd" clip-rule="evenodd" d="M255.823 106.996V63.9109L192.699 95.6118V128.624C212.237 125.825 238.774 119.514 255.823 106.996Z" fill="#4A8FE7"/>
<path fill-rule="evenodd" clip-rule="evenodd" d="M162.548 131.06C169.994 130.953 177.517 130.443 184.984 129.607V95.6363L162.11 84.2503C160.318 84.3039 158.44 84.3877 156.492 84.5035V128.044L162.548 131.06Z" fill="#1C6AD0"/>
<path fill-rule="evenodd" clip-rule="evenodd" d="M189.457 136.841C176.774 138.881 155.642 139.274 143.73 138.024C120.274 135.562 76.058 124.749 58.2718 100.912L58.3364 134.494L59.7326 142.522C101.19 158.147 160.782 163.978 207.484 157.359V157.358C221.879 155.233 246.439 149.815 269.763 140.308L271.649 136.312L271.478 102.582C254.961 124.035 216.509 133.437 189.457 136.841Z" fill="#1C6AD0"/>
<path fill-rule="evenodd" clip-rule="evenodd" d="M274.192 146.836C255.337 155.036 229.035 161.928 208.599 164.983V164.983C163.8 171.486 100.562 166.672 55.1233 148.996C30.5578 139.447 10.442 125.938 0.0142002 107.804V135.644H0C0.3754 160.024 18.853 177.913 44.179 190.521C81.1975 208.95 132.462 216.044 164.898 215.815C205.58 215.529 302.48 200.584 325.589 152.503C327.475 148.578 328.602 143.175 329.244 136.985L329.247 136.754L329.251 136.754C330.246 127.024 330.063 115.782 329.757 105.275L324.807 112.404L324.81 112.406C312.551 127.862 292.671 139.134 274.192 146.836Z" fill="#4A8FE7"/>
</svg>
